<?xml version="1.0" encoding="utf-8"?>
<!-- Generator: Adobe Illustrator 25.0.0, SVG Export Plug-In . SVG Version: 6.00 Build 0)  -->
<svg version="1.1" id="Слой_1" xmlns="http://www.w3.org/2000/svg" xmlns:xlink="http://www.w3.org/1999/xlink" x="0px" y="0px"
	 viewBox="0 0 27 27" style="enable-background:new 0 0 27 27;" xml:space="preserve">
<style type="text/css">
	.st0{fill:#363636;}
</style>
<g>
	<path class="st0" d="M16,5c3.31,0,6,2.69,6,6v5c0,3.31-2.69,6-6,6h-5c-3.31,0-6-2.69-6-6v-5c0-3.31,2.69-6,6-6H16 M16,2h-5
		c-4.97,0-9,4.03-9,9v5c0,4.97,4.03,9,9,9h5c4.97,0,9-4.03,9-9v-5C25,6.03,20.97,2,16,2L16,2z"/>
</g>
</svg>
